<svg width="20" height="20" viewBox="0 0 20 20" fill="none" xmlns="http://www.w3.org/2000/svg">
<g clip-path="url(#clip0_3420_200)">
<path d="M10 0C4.477 0 0 4.50425 0 10.0609C0 15.0822 3.657 19.2444 8.438 20V12.9685H5.898V10.0609H8.438V7.84446C8.438 5.32321 9.93 3.93078 12.215 3.93078C13.309 3.93078 14.453 4.12697 14.453 4.12697V6.60194H13.193C11.95 6.60194 11.563 7.37763 11.563 8.17345V10.0609H14.336L13.893 12.9685H11.563V20C16.343 19.2454 20 15.0812 20 10.0609C20 4.50425 15.523 0 10 0Z" fill="#092F33"/>
</g>
<defs>
<clipPath id="clip0_3420_200">
<rect width="20" height="20" fill="white"/>
</clipPath>
</defs>
</svg>
