<svg width="30" height="31" viewBox="0 0 30 31" fill="none" xmlns="http://www.w3.org/2000/svg">
<g clip-path="url(#clip0_3406_180)">
<path d="M22.7561 21.9H11.4542C10.1141 21.9 8.92657 21.0076 8.56839 19.7305L4.74743 6.47444C4.53109 5.70747 3.82074 5.17465 3.01664 5.17465H0.0238202C-0.307914 5.17465 -0.577148 4.90704 -0.577148 4.57731C-0.577148 4.24759 -0.307914 3.97998 0.0238202 3.97998H3.01664C4.3568 3.97998 5.54432 4.8724 5.9025 6.1495L6.65611 8.75865H26.4652C27.041 8.75865 27.5686 9.02147 27.9112 9.48023C28.2549 9.93898 28.3571 10.5172 28.1912 11.0644L25.6059 19.8452C25.19 21.0828 24.0469 21.9 22.7561 21.9ZM6.99986 9.95331L9.72466 19.4055C9.9398 20.1725 10.6501 20.7053 11.4542 20.7053H22.7561C23.5181 20.7053 24.2176 20.2047 24.458 19.4891L27.041 10.7227C27.0963 10.5399 27.0614 10.3476 26.9472 10.1946C26.833 10.0405 26.6576 9.95331 26.4652 9.95331H6.99986Z" fill="black"/>
<path d="M12.1153 27.5C10.8426 27.5 9.80762 26.4954 9.80762 25.26C9.80762 24.0247 10.8426 23.02 12.1153 23.02C13.388 23.02 14.423 24.0247 14.423 25.26C14.423 26.4954 13.388 27.5 12.1153 27.5ZM12.1153 24.14C11.4784 24.14 10.9615 24.6429 10.9615 25.26C10.9615 25.8771 11.4784 26.38 12.1153 26.38C12.7522 26.38 13.2692 25.8771 13.2692 25.26C13.2692 24.6429 12.7522 24.14 12.1153 24.14Z" fill="black"/>
<path d="M21.3463 27.5C20.0736 27.5 19.0386 26.4954 19.0386 25.26C19.0386 24.0247 20.0736 23.02 21.3463 23.02C22.619 23.02 23.654 24.0247 23.654 25.26C23.654 26.4954 22.619 27.5 21.3463 27.5ZM21.3463 24.14C20.7093 24.14 20.1924 24.6429 20.1924 25.26C20.1924 25.8771 20.7093 26.38 21.3463 26.38C21.9832 26.38 22.5001 25.8771 22.5001 25.26C22.5001 24.6429 21.9832 24.14 21.3463 24.14Z" fill="black"/>
</g>
<defs>
<clipPath id="clip0_3406_180">
<rect width="30" height="30" fill="white" transform="translate(0 0.5)"/>
</clipPath>
</defs>
</svg>
