<svg width="149" height="36" viewBox="0 0 149 36" fill="none" xmlns="http://www.w3.org/2000/svg">
<path d="M1.15 35.5C0.816667 35.5 0.533333 35.4 0.3 35.2C0.0999998 34.9667 0 34.6833 0 34.35V1.7C0 1.33333 0.0999998 1.05 0.3 0.85C0.533333 0.616666 0.816667 0.5 1.15 0.5H3.65C4.01667 0.5 4.3 0.616666 4.5 0.85C4.73333 1.05 4.85 1.33333 4.85 1.7V14.1L18.2 1.3C18.7333 0.766667 19.3833 0.5 20.15 0.5H22.85C23.1167 0.5 23.35 0.6 23.55 0.800001C23.75 1 23.85 1.23333 23.85 1.5C23.85 1.76667 23.7833 1.98333 23.65 2.15L8.2 17.25L24.65 33.8C24.8167 34 24.9 34.2333 24.9 34.5C24.9 34.7667 24.8 35 24.6 35.2C24.4 35.4 24.1667 35.5 23.9 35.5H21.1C20.3667 35.5 19.7167 35.2167 19.15 34.65L4.85 20.6V34.35C4.85 34.6833 4.73333 34.9667 4.5 35.2C4.26667 35.4 3.98333 35.5 3.65 35.5H1.15Z" fill="#092F33"/>
<path d="M31.1793 35.5C30.846 35.5 30.5626 35.4 30.3293 35.2C30.1293 34.9667 30.0293 34.6833 30.0293 34.35V1.7C30.0293 1.33333 30.1293 1.05 30.3293 0.85C30.5626 0.616666 30.846 0.5 31.1793 0.5H51.8293C52.1626 0.5 52.4293 0.616666 52.6293 0.85C52.8626 1.05 52.9793 1.33333 52.9793 1.7V3.6C52.9793 3.93333 52.8793 4.21667 52.6793 4.45C52.4793 4.65 52.196 4.75 51.8293 4.75H34.8293V15.7H50.7293C51.0626 15.7 51.3293 15.8167 51.5293 16.05C51.7626 16.25 51.8793 16.5333 51.8793 16.9V18.75C51.8793 19.0833 51.7626 19.3667 51.5293 19.6C51.3293 19.8 51.0626 19.9 50.7293 19.9H34.8293V31.25H52.2293C52.596 31.25 52.8793 31.35 53.0793 31.55C53.2793 31.75 53.3793 32.0333 53.3793 32.4V34.35C53.3793 34.6833 53.2626 34.9667 53.0293 35.2C52.8293 35.4 52.5626 35.5 52.2293 35.5H31.1793Z" fill="#092F33"/>
<path d="M61.5016 35.5C61.1682 35.5 60.8849 35.4 60.6516 35.2C60.4516 34.9667 60.3516 34.6833 60.3516 34.35V1.7C60.3516 1.33333 60.4516 1.05 60.6516 0.85C60.8849 0.616666 61.1682 0.5 61.5016 0.5H75.2016C78.7682 0.5 81.4516 1.35 83.2516 3.05C85.0516 4.75 85.9516 6.98333 85.9516 9.75C85.9516 11.6167 85.5182 13.1667 84.6516 14.4C83.8182 15.6333 82.8182 16.5333 81.6516 17.1C83.0516 17.8 84.2349 18.8833 85.2016 20.35C86.1682 21.8167 86.6516 23.5 86.6516 25.4C86.6516 27.2667 86.2182 28.9667 85.3516 30.5C84.5182 32.0333 83.2682 33.25 81.6016 34.15C79.9349 35.05 77.9349 35.5 75.6016 35.5H61.5016ZM74.4516 15.3C76.5516 15.3 78.1516 14.8167 79.2516 13.85C80.3849 12.8833 80.9516 11.5333 80.9516 9.8C80.9516 8.1 80.4016 6.8 79.3016 5.9C78.2016 5 76.5849 4.55 74.4516 4.55H65.2516V15.3H74.4516ZM74.9516 31.45C77.0516 31.45 78.6849 30.8833 79.8516 29.75C81.0516 28.6167 81.6516 27.1667 81.6516 25.4C81.6516 23.5667 81.0516 22.1 79.8516 21C78.6849 19.8667 77.0516 19.3 74.9516 19.3H65.2516V31.45H74.9516Z" fill="#092F33"/>
<path d="M94.9 35.5C94.5667 35.5 94.2833 35.4 94.05 35.2C93.85 34.9667 93.75 34.6833 93.75 34.35V1.7C93.75 1.33333 93.85 1.05 94.05 0.85C94.2833 0.616666 94.5667 0.5 94.9 0.5H115.55C115.883 0.5 116.15 0.616666 116.35 0.85C116.583 1.05 116.7 1.33333 116.7 1.7V3.6C116.7 3.93333 116.6 4.21667 116.4 4.45C116.2 4.65 115.917 4.75 115.55 4.75H98.55V15.7H114.45C114.783 15.7 115.05 15.8167 115.25 16.05C115.483 16.25 115.6 16.5333 115.6 16.9V18.75C115.6 19.0833 115.483 19.3667 115.25 19.6C115.05 19.8 114.783 19.9 114.45 19.9H98.55V31.25H115.95C116.317 31.25 116.6 31.35 116.8 31.55C117 31.75 117.1 32.0333 117.1 32.4V34.35C117.1 34.6833 116.983 34.9667 116.75 35.2C116.55 35.4 116.283 35.5 115.95 35.5H94.9Z" fill="#092F33"/>
<path d="M125.222 35.5C124.889 35.5 124.606 35.4 124.372 35.2C124.172 34.9667 124.072 34.6833 124.072 34.35V1.7C124.072 1.33333 124.172 1.05 124.372 0.85C124.606 0.616666 124.889 0.5 125.222 0.5H127.722C128.089 0.5 128.372 0.616666 128.572 0.85C128.806 1.05 128.922 1.33333 128.922 1.7V14.1L142.272 1.3C142.806 0.766667 143.456 0.5 144.222 0.5H146.922C147.189 0.5 147.422 0.6 147.622 0.800001C147.822 1 147.922 1.23333 147.922 1.5C147.922 1.76667 147.856 1.98333 147.722 2.15L132.272 17.25L148.722 33.8C148.889 34 148.972 34.2333 148.972 34.5C148.972 34.7667 148.872 35 148.672 35.2C148.472 35.4 148.239 35.5 147.972 35.5H145.172C144.439 35.5 143.789 35.2167 143.222 34.65L128.922 20.6V34.35C128.922 34.6833 128.806 34.9667 128.572 35.2C128.339 35.4 128.056 35.5 127.722 35.5H125.222Z" fill="#092F33"/>
</svg>
