<svg width="29" height="28" viewBox="0 0 29 28" fill="none" xmlns="http://www.w3.org/2000/svg">
<path d="M14.9723 3C10.3618 3 6.6123 6.70012 6.6123 11.25C6.6123 16.9686 14.1586 24.4816 14.4791 24.7992C14.6156 24.9326 14.794 25 14.9723 25C15.1507 25 15.329 24.9326 15.4655 24.7992C15.786 24.4816 23.3323 16.9686 23.3323 11.25C23.3323 6.70012 19.5828 3 14.9723 3ZM14.9723 23.3184C13.3087 21.5611 8.00564 15.6184 8.00564 11.25C8.00564 7.45913 11.1309 4.375 14.9723 4.375C18.8137 4.375 21.939 7.45913 21.939 11.25C21.939 15.6143 16.6359 21.5611 14.9723 23.3184Z" fill="#FECB25"/>
<path d="M14.9722 7.3999C12.7889 7.3999 11.0122 9.17662 11.0122 11.3599C11.0122 13.5432 12.7889 15.3199 14.9722 15.3199C17.1555 15.3199 18.9322 13.5432 18.9322 11.3599C18.9322 9.17662 17.1555 7.3999 14.9722 7.3999ZM14.9722 13.9999C13.5162 13.9999 12.3322 12.8159 12.3322 11.3599C12.3322 9.90394 13.5162 8.7199 14.9722 8.7199C16.4282 8.7199 17.6122 9.90394 17.6122 11.3599C17.6122 12.8159 16.4282 13.9999 14.9722 13.9999Z" fill="#FECB25"/>
</svg>
