<svg width="29" height="28" viewBox="0 0 29 28" fill="none" xmlns="http://www.w3.org/2000/svg">
<path d="M14.9395 3C10.2389 3 6.21947 5.96445 4.64746 10.1212L14.9457 11.2228L25.2308 10.1212C23.6592 5.96482 19.6401 3 14.9395 3Z" fill="#F1F1F1"/>
<path d="M14.9396 25.0002C19.6402 25.0002 23.6593 22.0357 25.2313 17.8789L14.9396 17.1445L4.64795 17.8789C6.21959 22.0353 10.239 25.0002 14.9396 25.0002Z" fill="#E90000"/>
<path d="M25.3582 10.4807C25.3175 10.3603 25.2756 10.2402 25.2308 10.1216H4.64744C3.70997 12.536 3.70997 15.4641 4.64744 17.8784H25.2308C26.1198 15.59 26.1712 12.7989 25.3582 10.4807Z" fill="#0000D2"/>
</svg>
